<svg width="452" height="340" viewBox="0 0 452 340" fill="none" xmlns="http://www.w3.org/2000/svg">
<path d="M179.49 0.240021L181.44 1.32001L183.17 2.64001L184.06 3.5L184.21 3.65002L184.83 4.5L185.27 5.5L185.34 7.81L185.05 10.05L184.14 12.82L182.61 15.45L182.53 15.48L182.02 15.99L181.73 16.96L181.5 19.3L181.59 21.17L181.79 21.57L182.18 21.79L184.83 22.33L191.84 26.23L195.65 30.81L197.22 33.17L198.58 35.58L199 36.01L199.58 36.15L204.68 35.97L209.26 36.1L213.06 36.64L216.63 37.75L220.04 39.46L223.21 41.76L223.9 41.95L224.48 41.54L224.54 41.4L228.1 30.76L228.34 30.15L231.46 25.72L234.54 21.29L237.63 17.89L240.92 14.81L244.4 12.05L248.08 9.62003L252.84 7.07001L257.9 4.99002L263.24 3.40002L268.87 2.29001L269.76 2.04001L270.62 2.05002L270.83 2.09003L275.7 2.14001L280.56 2.45001L285.48 3.36002L290.19 4.66L294.68 6.36002L298.94 8.46002L302.79 10.81L306.44 13.52L309.89 16.59L313.15 20.01L315.66 23.31L318.07 26.68L318.32 26.86L318.7 27.36L318.93 28.01L323.21 37.85L324.08 40.46L325.21 50.05L325.89 59.7L326.13 69.42L325.91 79.2L325.96 79.85L326.19 80.19L326.92 80.1L392.25 80.3L396.02 81.46L399.21 83.02L401.83 84.97L403.87 87.32L405.08 89.47L405.93 91.88L406.42 94.54L406.54 97.45L406.27 117.95L406.53 161.32L406.46 194.2L406.37 221.99L406.61 245.43L406.72 255.09L406.29 269.04L406.44 282.93L406.16 287.18L405.97 289L405.48 290.21L404.18 291.95L402.3 292.65L400.87 292.64L310.88 292.9L310.79 292.85L309.92 292.9L309.31 292.8L308.8 293.45L308.58 294.55L308.71 295.53L308.8 295.76L308.08 300.47L307.75 301.48V302.69L307.91 302.98L308.17 302.92L308.32 303.03L309.14 303.29L319.84 303.5L321.81 303.45L334.47 303.15L384.14 303.5L400.49 303.37L409.26 303.61L412.88 303.59L418.08 303.05L418.34 303.29L418.79 303.03L418.89 302.79L419.2 298.1L419.18 293.45L419.13 267.45L419.16 227.44L418.95 121.95L418.74 93.68L418.6 91.65L418.21 89.55L417.57 87.4L416.69 85.19L416.39 84.14L416.17 83.69L413.64 79.94L410.64 76.69L407.12 73.9H406.95L406.41 73.48L403.36 71.44L400.1 69.98L396.73 69.11L393.16 68.81L378.4 68.88L342.21 68.5L340.45 65.1L341.37 62.6L341.81 61.77L342.41 61.14L342.52 61.06L343.5 60.53L344.41 60.36L363.72 60.44L381.42 60.16L390.93 60.22L394.57 60.51L397.48 60.98L402.34 62.33L406.81 64.14L410.89 66.41L414.57 69.15L417.27 71.71L419.71 74.58L421.9 77.75L423.82 81.23L424.85 83.77L425.71 86.92L426.99 92.88L427.18 302.55L427.44 303.19L428.07 303.45H449.65L450.21 303.6L450.56 304L451.01 305.07L451.26 306.17L451.15 308.41L450.51 311.58L449.71 314.59L448.74 317.43L447.59 320.1L446.28 322.6L444.8 324.93L443.15 327.09L441.33 329.09L438.69 331.46L435.75 333.53L432.51 335.32L428.99 336.81L426.16 337.67L422.88 338.35L419.17 338.84L415.02 339.13L406.36 339.4L397.68 339.42H56.3499L33.3899 338.89L29.4999 338.64L26.1099 338.13L23.2099 337.35L20.7999 336.32L13.5399 332.41L10.4399 329.48L10.0999 328.72L9.60992 328.14L8.66992 327.63L7.29993 326.26L4.58994 321.5L3.08994 318.64L1.97992 315.75L1.24991 312.85L0.919922 309.93L0.96991 306.9L1.43991 303.85L8.81992 303.08L17.4399 303.52L24.3899 303.5L24.9299 303.29L25.0099 302.55L24.9799 91.39L26.2899 87.56L27.4699 83.68L29.0499 80.17L30.9099 76.94L33.0399 73.98L35.4499 71.31L38.4899 68.62L41.8899 66.29L45.6399 64.32L49.7399 62.69L55.4499 60.78L65.7999 60.08L80.6199 60.36L95.3699 60.21L97.0499 60.46L98.4399 61.22L99.6499 62.51L100.07 64.36L99.8499 65.97L99.4099 66.83L98.7399 67.61L96.6999 68.92L95.2499 68.83L81.8999 68.44L68.4999 68.81L60.2699 68.74L56.5199 69.11L52.9999 69.87L49.7099 71.03L46.6699 72.58L43.6699 74.67L40.9499 77.21L38.4999 80.2L36.3099 83.64L35.9399 84.96L35.4799 85.74L34.5799 87.67L33.9199 89.73L33.4899 91.91L33.2999 94.23L33.2399 99.9L33.4299 104.48L33.5699 114.66L33.1899 127.41L33.5299 140.06L33.1699 195.98L33.5199 251.9V266.46L33.0999 296.7L33.1899 299.1L33.4999 301.4L33.2899 302.41L33.4899 303.02L33.8399 303.22L34.3799 303.24L140.94 303.39H141.03L141.53 303.25L141.92 302.92L142.16 302.46L142.19 301.95L141.72 298.69L141.97 296.05L141.59 293.58L141.58 293.53L141.13 292.87L140.36 292.61L51.1299 292.51L48.9199 292.22L47.9899 291.84L47.2399 291.3L46.3999 290.23L45.8599 288.89L45.5599 287.15L45.4799 284.91L45.7499 193.05L45.7299 101.17L45.8199 97.28L46.0999 94.03L46.5699 91.42L47.2399 89.44L48.9599 86.58L50.7499 84.64L52.9199 82.99L55.4599 81.64L58.3899 80.57L109.42 80.36L110.35 80.27L110.75 79.8L110.94 79L110.73 76.4L111.13 72.3L112.58 67.97L113.13 66.79L113.99 65.65L115.56 64.13L117.25 62.77L120.47 60.85L124.06 59.44L124.48 59.2L124.72 58.81L124.87 58.33L125 56.93L124.74 55.44L125.13 52.69L128.07 45.73L128.17 45.33L128.61 44.95L130.63 42.7L132.8 40.77L135.1 39.16L137.55 37.86L140.06 36.91L142.7 36.26L145.47 35.91L148.38 35.85L154.63 36.13L155.89 35.9L156.52 35.4L157.16 34.44L158.44 32.28L159.86 30.29L161.43 28.46L163.14 26.79L164.14 25.95L165.99 24.64L167.96 23.57L170.33 22.66L172.85 22.06L173.77 21.59L174.07 20.62V16.77L174 16.27L173.75 15.79L170.11 10.78L169.95 8.68002L170.05 6.78L170.4 5.05002L171.01 3.52002L172.46 2.56L173.36 1.42001L175.49 0.370026L177.63 0L179.49 0.240021ZM273.1 10.83L270.76 10.64L269.81 10.82L269 11.18L271.94 15.57L273.5 17.39L275.13 18.96L277.8 21.3L280.59 23.37L283.51 25.18L286.54 26.71L289.67 27.96L292.92 28.94L296.29 29.66L299.78 30.11L303.56 30.48L306.83 30.15L308.37 30.21L309.68 29.96L309.84 29.88L310.11 29.4L309.89 28.88L309.42 28.65H309.23L308.87 27.79L308.25 26.92L306.62 24.73L304.8 22.74L302.49 20.71L299.94 18.93L299.27 18.63L298.99 18.25L298.98 18.18L297.45 16.93L295.57 16.23V16.09L295.17 15.63L290.09 13.25L284.83 11.63L281.51 11.02L278.13 10.69L275.49 10.52L273.1 10.83ZM296.22 45.07L302.13 45.49L307.89 45.14L311.3 45.08L313.86 44.53L314.92 44.2L315.54 44.36L315.79 43.93L315.86 43.35L315.8 42.37L315.52 41.38L314.31 39.37L313.74 38.82V38.33L313.06 38.13L311.62 38.44L310.87 38.43L306.86 38.7L304.7 38.89L302.9 38.82L298.93 38.22L293.06 37.13L287.54 35.51L282.35 33.35L277.5 30.66L273.94 28.17L270.59 25.36L267.45 22.21L264.51 18.74L262.81 16.13L261.52 14.45L260.78 13.74L260.21 13.55L259.95 13.52L258.61 13.53L257.64 13.86L255.94 14.84L254.33 15.5L253.89 15.75L253.6 16.16L253.49 16.65L253.59 17.15L253.64 17.25L256.66 22.1L260.11 26.59L264.33 31.02L269.05 35.03L272.57 37.5L276.2 39.63L279.94 41.41L283.8 42.84L286.81 43.7L289.88 44.36L293.02 44.81L296.22 45.07ZM236.14 33.93L234.25 37.63L233.2 40.68L232.52 43.89L232.7 44.54L233.31 44.83H233.4L235.65 44.4L239.97 42.76L244.1 40.76L249.14 37.63L253.84 33.89L254.11 33.39L254.01 32.83L247.52 21.59L247.43 21.46L247.04 21.12L246.53 20.97L246.01 21.05L245.56 21.33L240.83 26.52L238.52 29.53L236.4 32.7L236.23 33.05L236.14 33.93ZM182.62 30.25L182.84 30.53L182.18 30.43L182.16 30.36L181.77 29.89L181.02 29.56L178.87 29.13L176.74 29.04L175.21 29.19L174.05 29.44L172.17 30.14L170.38 31.21L168.14 32.97L166.35 34.7L165.86 35.39L165.81 35.88L166.21 36.17L167.05 36.27H188.82L189.29 36.1V35.62L188.83 34.79L188.2 34.22L187.77 33.88L187.58 33.66L186.48 32.46L184.72 31.17L182.62 30.25ZM253.16 44.78L252.37 44.9L247.22 48.03L241.82 50.57L236.79 52.32L231.56 53.59L230.87 54.06L230.73 54.87L230.74 54.91L231.01 56.48L230.93 57.99L230.79 58.62L230.78 58.64L230.89 59.3L231.44 59.69L235.34 60.58L237.66 61.82L239.67 63.26L241.37 64.9L242.75 66.74L243.85 68.85L244.62 71.17L245.05 73.7L245.14 76.45L245.05 84.04L245.16 91.05L245.32 92.66L245.69 94.02L246.44 95.53L247.65 97.19L251.86 101.79L254.07 103.79L256.25 105.49L258.47 106.97L260.8 108.26L263.16 109.31L265.63 110.17L266.28 110.35L267.84 111.11L269.02 111.27L270.28 111.14L273.9 111.5L277.67 111.25L280.34 110.89L282.89 110.18L286.14 108.66L289.16 106.49L292.87 103.23L296.18 99.29L298.2 96.37L299.86 93.13L301.16 89.59L302.1 85.74L303.29 78.06L303.77 71.22L304.23 65.01L304.53 54.65L304.41 54.23L304.02 54.02L303.53 53.93L300.58 53.66L297.55 53.86H295.66L293.97 53.42L288.31 52.39L282.87 50.94L277.66 49.05L272.67 46.73L266.67 43.18L261.02 38.93L260.15 38.62L259.3 38.98L253.16 44.78ZM132.96 93.14L132.6 102.79L132.66 110.67L133.05 113.6L134.05 116.21L135.13 117.87L136.51 119.36L137.29 119.93L137.51 120.26L138.68 121.22L140.63 122.39L142.82 123.24L145.24 123.77L147.9 123.97L175.44 124.23L205.66 124.17L209.97 123.88L211.62 123.55L212.93 123.08L215.89 121.27L218.96 118.53L220.62 116.59L221.81 114.64L222.55 112.67L222.82 110.7V110.45L222.71 63.46L222.5 57.77L222.09 54.73L221.24 52.27L219.76 49.83L217.91 47.82L215.28 46.02L212.15 44.8L207.14 44.49L180.72 44.52L150.39 44.24L145.98 44.33L143.14 44.75L141.16 45.43L139.39 46.31L137.84 47.38L136.5 48.65L135.45 50L134.58 51.53L133.98 53.23L133.54 55.46L133.14 61.54L132.96 93.14ZM317.24 52.56L315.14 53.17L313.93 52.97L313.1 53.25H313.09L312.76 53.84L312.64 54.87L312.33 69.77L312.49 71.53L312.24 73.46L311.11 81.61L310 87.39L309.35 90.62L309.15 93.22L309.35 136.63L309.45 137.34L309.76 137.83L310.34 138.1H311.16L312.54 138.4L314 138.44L315.73 139.16L317.2 139.1L317.24 139.09L317.59 138.84L317.72 138.4L318.01 69.18L317.82 60.17L317.24 52.56ZM123.64 68.51L123.5 68.54L122.99 68.95L122.86 68.65L122.39 68.78L120.67 70.34L119.7 72.14L119.48 73.93L119.27 83.11L119.4 86.52L119.7 89.15L120.11 90.43L120.91 91.74L122.11 93.08L123.69 94.46L123.83 95.08L124.16 95.2L124.66 95.13L124.97 94.92L125.09 94.56V68.93L125.06 68.8L124.7 68.26L124.31 68.06L123.64 68.51ZM235.89 91.85L236.12 91.44L236.7 90.12L236.77 89.58L236.88 83.64L236.74 76.96L236.51 74.77L236.01 72.9L235.25 71.34L234.21 70.1L233.23 69.36L232.17 68.82L231.91 68.72H231.45L231.29 69.16V93.71L231.55 94.29L232.16 94.46L232.27 94.44L233.53 93.97L234.55 93.38L235.34 92.67L235.89 91.85ZM117.51 284.03L117.65 283.86L117.64 283.83L117.47 283.59L104.5 271.59L100.18 267.32L97.0699 263.47L94.8599 259.67L94.0899 257.79L93.5299 255.85L93.1199 252.71L92.9599 248.04L92.6699 174.49L92.8499 169.25L93.0799 167.48L93.4199 166.27L94.7099 163.61L96.2499 161.29L98.0099 159.32L100.02 157.7L102.42 156.35L105.1 155.39L108.04 154.83L111.26 154.66L111.81 154.47L112.11 153.96L112.89 150.89L114.01 148.19L115.46 145.86L117.25 143.91L119.22 142.42L121.49 141.25L123.51 140.64L126.19 140.23L129.52 140.02L133.5 140.01L147.03 140.17L161.18 140.1L161.37 139.89V139.88L160.33 132.68L160.23 132.48L160.03 132.42L149.75 132.29L144.42 132.03L141.36 131.47L138.46 130.53L136.22 129.47L134.08 128.17L132.05 126.6L130.12 124.78L128.25 122.55L126.75 120.08L125.58 117.14L124.87 113.88L124.57 110.15L124.62 105.14L124.45 104.54L123.97 104.14L121.63 103.07L119.5 101.81L117.57 100.36L115.85 98.71L114.2 96.7L112.8 94.46L111.65 91.99L110.74 89.29L110.47 88.89L110.01 88.74L88.1799 88.76L65.9799 88.54L60.8299 88.73L59.1099 89.04L57.9599 89.49L56.2699 90.78L55.0299 92.33L54.1499 94.46L53.8499 96.94V283.31L54.0599 283.82L54.5699 284.03H117.51ZM397.54 284.01L397.94 283.85L398.1 283.45L397.99 103.7L398.01 102.29L397.89 96.61L397.61 94.61L397.17 93.12L396.43 91.77L395.47 90.67L394.32 89.86L392.97 89.28L391.41 88.93L389.63 88.82L326.4 88.73L326.05 88.85L325.94 89.18V138.5L326.15 139.03L326.66 139.28L329.45 139.61L332.16 140.15L334.76 140.91L337.27 141.88L339.62 143.03L341.88 144.38L344.06 145.93L346.14 147.69L348.26 149.79L350.18 152.04L352.17 154.84L353.89 157.83L355.35 161.03L356.55 164.44L357.19 167.13L357.64 170.49L357.92 174.5L358.01 179.18L358 283.34L358.2 283.81L358.68 284.01H397.54ZM236.8 102.35L236.69 102.48L231.48 103.92L231.09 104.17L230.97 104.61L231.1 109.17L230.02 138.13L230.13 138.72L230.48 139.21L231.01 139.49L231.61 139.53L231.88 139.45L232.7 139.12L234.6 139.19L236.09 139.01L237.16 138.6L237.81 137.95L238.02 137.32L237.94 103.94L238.04 102.62L237.76 102.02H237.36L236.8 102.35ZM300.23 108.16L299.59 108.64L298.66 109.28L297.73 110.25L297 111.44L294.57 113.22L294.46 113.35L293.68 114.85L293.39 116.73L293.6 118.99L294.29 121.65L294.53 123.77L295.02 125.56L295.72 127.24L297.44 129.94L299.78 132.32L300.87 133.14L301.39 133.29L301.19 132.46L300.93 109.17L301.08 108.12L301 107.84L300.77 107.63L300.47 107.66L300.43 107.68L300.23 108.16ZM246.6 128.67L246.12 129.43L246.03 130.14L246.24 130.66L246.09 131.44L246.21 132.12L246.43 132.52L246.77 132.87L247.14 132.8L247.6 132.43L248.96 130.8L249.76 129.39L252.53 124.98L253.56 123.56L254.26 121.37L254.65 118.38V115.19L254.51 114.74L254.18 114.4L250.09 111.66L248.54 110.4L247.13 108.79L246.84 108.59L246.59 108.84L246.38 109.34L246.13 111.2L246.39 119.23V126.93L246.6 128.66V128.67ZM280.19 119.19L268.12 119.24L266.16 118.68L264.53 118.64L263.78 118.61L263.44 118.89L263.19 119.39L262.58 121.86L262.53 123.49L262.49 124.26L262.19 124.94L259.66 130.44L258.54 131.62L257.44 133.72L257.79 135.41L259.37 137.73L261.1 139.87L262.98 141.82L265.01 143.57L266.29 144.53L267.56 145.3L270.17 146.27L273.11 146.61L275.77 146.33L278.44 145.39L280.06 144.75L281.51 143.89L282.96 142.65L284.21 141.13L285.95 139.82L287.48 138.31L288.66 136.8L289.67 135.13L289.82 134.41L289.59 133.71L287.53 130.03L286.09 126.14L285.21 121.99L284.78 118.21L280.19 119.19ZM195.6 132.24H195.56L194.99 132.5L194.76 133.08V139.52L194.91 139.96L195.34 140.1H221.26L221.8 139.88L222.04 139.33L222.31 127.45L222.22 127.17L221.93 127.22L217.28 129.81L215.48 130.71L213.7 131.37L211.95 131.8L210.22 131.99L195.6 132.24ZM167.86 133.23L168.11 134.24L168.07 134.31L167.94 134.82L168.08 135.48L168.91 137.42L169.91 139.17L171.08 140.74L172.42 142.11L175.08 144.02L177.1 144.52L177.63 144.56L179.09 144.19L180.08 143.66L181.76 142.48L183.29 141.03L183.99 140.76L185.34 139.67L186.35 137.9L187.8 133L187.82 132.9L187.59 132.18L186.9 131.87H168.27L167.76 132.03L167.51 132.53L167.62 133.11L167.86 133.23ZM330 190.04L331.71 190.22L332.95 190.91L333.72 192.16L333.98 193.95L334 254.12L334.16 254.52L334.56 254.68H349.34L349.65 254.55L349.78 254.24L349.88 175.2L349.68 171.51L349.14 168.49L348.26 165.51L347.04 162.58L345.48 159.68L343.71 157.06L341.74 154.77L339.57 152.79L337.21 151.13L333.44 149.28L329.26 148.11L325.96 147.74L320.68 147.61L315.44 147.49L312.1 147.14L311.7 147.07L307.9 146.12L304.19 144.74L300.56 142.91L297.02 140.65L296.33 140.48L295.7 140.83L292 145.32L289.88 147.59L287.62 149.56L285.22 151.22L282.72 152.57L280.13 153.6L277.47 154.29L274.77 154.64H272.04L268.59 154.11L265.17 152.99L261.94 151.31L258.82 149.03L254.87 145.24L251.3 140.89L250.9 140.59L250.39 140.7L241.4 145.89L241.19 146.11L241.25 146.43L241.99 148.08L242.58 149.92L243.3 154.2L243.45 154.63L243.84 154.87L245.99 155.06L247.02 155.11L249.89 155.68L252.48 156.56L254.78 157.76L256.81 159.28L258.07 160.54L259.19 161.96L261 165.28L261.63 167.27L262.06 169.77L262.3 172.77L262.33 176.28L262.23 197.54L262.42 198L262.87 198.19L299.91 198.04L305.62 198.29L307.74 198.6L309.38 199.05L311.42 199.96L313.26 201.14L315.35 203.09L317.1 205.5L318 207.44L318.56 209.71L318.74 212.31L318.56 215.16L309.94 283.5L310.04 283.86L310.37 284.03H310.4H325.36L325.44 284.02L325.78 283.84L325.92 283.47L325.88 194.2L326.15 192.32L326.96 191L328.17 190.29L329.84 190.05L330 190.04ZM148.26 148.55L148.18 148.76L148.39 149.16L147.99 149.26L148.04 149.7L154.45 163.42L154.71 163.7L154.94 163.72L155.78 165.86L155.52 166.32H156.29L156.71 166.17L157.14 165.85L167.73 155.33L170.24 152.85L170.98 152.18L171.04 151.64L170.84 150.99L170.3 150.37L169.4 150.22L167.96 149.13L167.22 148.13L166.48 147.8L165.91 148L165.58 147.99L158.38 148.26L154.06 148.36L148.26 147.76L147.94 147.92L147.86 148.28L148.26 148.55ZM187.77 148.58L184.56 151.03L184.25 151.15L184.38 151.69L185.2 152.66L197.01 164.47L198.62 165.2L198.99 165.24L199.24 164.96L203.32 155.86L203.73 155.46L204.35 154.34L204.56 152.88L206.15 149.37L206.11 149.03L205.93 148.79L206.14 148.66L206.16 148.64L206.2 148.47L206.11 148.33L205.48 148.01L204.81 148.05L204.08 148.44L192.58 148.3L191.09 147.84L189.85 147.67L188.86 147.78L188.11 148.18L187.77 148.58ZM121.41 250.12L137.77 266.36L138.08 266.95L138.34 267.12L138.63 267.01L138.69 266.91L138.72 266.05L138.14 265.65L137.99 263.52L137.5 261.51L137.69 261.4L137.95 260.94L137.96 260.19L133.81 223.14L133.04 218.07L132.73 214.35L132.93 210.7L133.36 208.22L134.03 205.77L135.39 203.5L137.16 201.79L137.61 201.49L141.21 199.55L143.07 198.88L144.96 198.41L148.64 198.06L160.96 198.28L161.56 198.22L162.01 197.98L162.3 197.56L162.43 196.96L162.79 191.9L163.3 190.11L163.43 189.32L164.67 180.3L166.12 171.31L166.23 170.68L166.19 170.21L165.91 169.87L165.89 169.55L165.85 169.58L166.48 168.63L166.61 167.87L166.42 167.52L166.07 167.7L157.52 176.86L156.12 178L154.73 178.38L153.41 178.01L152.26 177L151.12 175.21L146.88 166.37L141.12 153.23L140.84 152.91L140.64 152.97L140.52 152.83L140.45 152.51L140 151.1L138.64 148.62L138.29 148.31L137.84 148.17L132.8 147.92L127.52 148.04L125.85 148.25L124.42 148.66L123.22 149.29L122.26 150.13L121.61 151.04L121.14 152.11L120.86 153.35L120.75 154.75L120.57 195.31L120.66 244.7L120.86 248.01L121.41 250.12ZM193.36 172.59L190.84 169.59L190.13 169.24L189.29 169.43L189.28 169.51L189.33 172.14L190.12 174.86L190.95 179.7L193.22 194.92L193.7 195.54L194.21 196.65L194.62 197.21L195.28 197.43H234.37L234.95 197.19L235.18 196.61L234.75 154.55L234.66 152.77L234.1 151.26L233.01 149.97L231.41 148.97L216.88 148.5L216.33 148.46L215.81 148.63L215.19 149.4L203.4 175.46L202.51 176.84L201.39 177.59L200.24 177.74L198.93 177.29L197.4 176.1L193.36 172.59ZM183.88 198.11L184.41 198L184.84 197.67L185.1 197.2L185.14 196.66L179.69 159.07L179.41 158.43L178.83 158.05L177.05 157.46L176.08 157.54L175.62 157.93L175.4 158.5L170.24 196.67L170.46 197.56L171.22 198.08L171.5 198.11H183.88ZM111.35 240.08L111.38 240.43L111.85 240.41L112.47 239.93L112.71 239.17L112.4 175.15L112.11 164.17L111.96 163.8L111.61 163.6L109.32 163.38L107.33 163.52L105.61 164.02L104.19 164.87L103.23 165.85L102.46 167.08L102 168.38L101.66 170.21L101.33 175.41L101.14 189.2L101 231.46L101.14 235.15L101.28 239.47L101.47 240L101.96 240.28L105.28 240.61L108.56 240.51L111.35 240.08ZM253.92 197.5L254.14 197.11L254.2 196.7L254.06 173.45L253.85 170.92L253.26 168.31L252.25 166.42L250.87 165L249.46 164.17L247.8 163.67L245.9 163.5L243.75 163.64L243.46 163.8L243.34 164.11V196.94V196.96L243.46 197.49L243.77 197.93L244.23 198.22L244.76 198.31L253.62 198.03L253.88 198L254 197.78L253.92 197.5ZM199.19 165.64L199.05 165.88L199.12 166.12L199.3 165.93L199.34 165.83L199.31 165.67V165.66L199.19 165.64ZM235.39 197.43L235.5 197.5L235.51 197.49L235.61 197.4L235.59 197.04L235.56 197L235.38 197.06L235.39 197.43ZM145 206.95L143.27 207.75L142 208.91L141.17 210.52L140.85 212.53L141.24 218.39L141.43 220.13L142.28 224.19L144.5 243.83L144.81 249.76L145.56 255.62L146.27 259.34L146.31 259.38L146.64 260.18L146.54 261.35L151.06 302.84L151.43 303.02L151.77 303.16L152.03 303.19L190.94 303.67L194.74 308.61L196.32 310.23L197.13 310.66L197.97 310.85L198.13 310.86L217.04 311.01L251.64 310.94L253.84 310.64L255.61 309.76L256.65 308.73L260.11 303.52L297.29 303.19L298.14 303.33L298.81 303.23L299.19 302.98L299.36 302.54L305.08 257.33L307.49 238.61L310.56 213.45L310.52 211.95L310.02 210.79L309.91 210.66L309.83 210.69L309.74 210.26L309 209.04L308.06 208.07L306.2 207.06L305.72 206.91L303.32 206.38H303.12L153.39 206.43L149.28 206.56L145 206.95ZM101.31 249.69L101.29 249.79L101.22 251.03L101.5 252.34L101.53 253.86L101.87 255.27L102.5 256.52L103.08 257.21L103.9 258.71L105.62 261.01L107.55 263.09L110.69 265.7L121.56 276.23L128.99 283.43L129.36 283.69L129.86 283.8L139.02 284.07L139.62 283.93L139.71 283.87L140.06 283.35L140.04 283.16L140.09 281.9L139.57 280.4L138.96 279.68L138.13 279.11L127.17 267.97L114.66 254.44L113.67 253.17L113.04 251.79L112.74 249.88L112.43 249.14L111.7 248.82L102.89 248.77L101.56 248.91L101.06 249.23L101.31 249.69ZM335.12 263.32L334.56 263.62L334.28 264.01L334.24 264.22L334.15 273.99L334.48 283.77L349.03 284.08L349.76 283.79L350.06 283.07V283.06L349.86 266.43L349.96 264.17L350.03 263.54L349.78 263.17L348.95 262.93L335.12 263.32ZM10.0099 312.84L10.7599 314.94L11.1399 316.34L11.7599 317.77L13.6899 320.7L15.7199 323.01L17.9099 325.03L20.2299 326.77L22.7099 328.22L25.6299 329.49L28.0899 330.16L31.2799 330.65L35.1899 330.96L39.8399 331.09L119.39 331.3L260.91 331.07L335.95 331.14L416.92 330.97L420.42 330.78L423.72 330.21L426.83 329.28L429.74 327.98L432.49 326.28L435.05 324.19L437.41 321.73L439.56 318.89L441.33 315.65L442.28 312.81V312.2L441.68 311.67L441.29 311.6L428.36 311.79L415.42 311.94L309.14 311.81L267.41 311.79L266.31 311.9L265.33 312.26L264.14 313.23L263.22 314.72L262.42 315.65L261.69 316.23L259.63 317.52L257.44 318.42L255.41 318.9L253.29 319.09L248.81 319.32L216.6 319.36L199.33 319.4L195.13 318.86L190.73 317.48L186.21 312.85L186.26 312.14L185.93 311.95L181.56 311.77L94.8899 311.86L14.6999 311.73L10.2599 312.02L9.94992 312.18L9.87991 312.51L9.90991 312.65L10.0099 312.84Z" fill="#16335D"/>
<path d="M184.06 3.49826L183.17 2.63828L181.44 1.31827L179.49 0.238281L181.23 0.588287L182.61 1.36829L183.45 2.29828L184.06 3.49826Z" fill="#9A9DA5" fill-opacity="0.996"/>
<path d="M173.36 1.41992L172.46 2.55991L171.01 3.51993L171.75 2.41992L172.68 1.68991L173.36 1.41992Z" fill="#9A9DA5" fill-opacity="0.996"/>
<path d="M318.07 26.6785L315.66 23.3085L313.15 20.0085L309.89 16.5885L306.44 13.5185L302.79 10.8085L298.94 8.45853L294.68 6.35852L290.19 4.65851L285.48 3.35852L280.56 2.44852L275.7 2.13852L270.83 2.08853L273.5 1.5585L275.89 1.47852L282.31 2.18851L288.38 3.5285L294.11 5.48853L299.48 8.07852L304.2 11.0785L308.6 14.6285L312.71 18.7185L316.5 23.3685L317.22 24.6385L318.07 26.6785Z" fill="#9A9DA5" fill-opacity="0.996"/>
<path d="M268.87 2.28906L263.24 3.39908L257.9 4.98907L252.84 7.06906L248.08 9.61908L244.4 12.0491L240.92 14.8091L237.63 17.8891L234.54 21.2891L231.46 25.7191L228.34 30.1491L230.25 26.6691L232.41 23.3791L235.73 19.2391L239.53 15.4291L243.79 11.9591L248.52 8.82907L253.15 6.36908L257.83 4.46906L262.57 3.14908L267.36 2.40906L268.87 2.28906Z" fill="#9A9DA5" fill-opacity="0.996"/>
<path d="M185.271 5.5L185.781 6.41L186.061 7.35001L186.121 8.38L185.931 9.45001L184.651 12.56L182.611 15.45L184.141 12.82L185.051 10.05L185.341 7.81L185.271 5.5Z" fill="#9A9DA5" fill-opacity="0.996"/>
<path d="M295.571 16.2295L292.041 14.5895L288.691 13.3094L285.261 12.2195L281.741 11.3495L278.131 10.6895L281.511 11.0195L284.831 11.6295L290.091 13.2495L295.171 15.6295L295.571 16.0895V16.2295Z" fill="#9A9DA5" fill-opacity="0.996"/>
<path d="M128.611 44.9493L130.051 42.9593L131.621 41.2093L133.341 39.6993L135.211 38.4293L137.381 37.3293L139.721 36.5093L142.221 35.9693L144.891 35.7093L154.811 35.3993L155.971 35.0493L156.791 34.1593L158.011 32.0093L159.381 30.0293L160.911 28.2393L162.601 26.6293L164.621 25.0793L166.831 23.7493L169.231 22.6293L171.811 21.7293L172.641 21.1893L173.021 20.2693L173.081 19.0293L172.891 16.9593L172.341 14.8993L171.411 12.8393L170.111 10.7793L173.751 15.7893L174.001 16.2693L174.071 16.7693V20.6193L173.771 21.5893L172.851 22.0593L170.331 22.6593L167.961 23.5693L165.991 24.6393L164.141 25.9493L163.141 26.7893L161.431 28.4593L159.861 30.2893L158.441 32.2793L157.161 34.4393L156.521 35.3993L155.891 35.8993L154.631 36.1293L148.381 35.8493L145.471 35.9093L142.701 36.2593L140.061 36.9093L137.551 37.8593L135.101 39.1593L132.801 40.7693L130.631 42.6993L128.611 44.9493Z" fill="#9A9DA5" fill-opacity="0.996"/>
<path d="M273.1 10.8287L272.91 10.9087L271.07 11.3287L269 11.1787L269.81 10.8187L270.76 10.6387L273.1 10.8287Z" fill="#9A9DA5" fill-opacity="0.996"/>
<path d="M259.95 13.5195L257.55 14.7295L255.25 15.3995L254.7 15.5795L254.38 15.8895L254.29 16.3195L254.42 16.8695L256.47 21.1195L259.02 24.8195L262.33 28.5495L265.86 31.8995L269.6 34.8995L273.57 37.5195L278.74 40.2395L284.23 42.3995L290.06 44.0095L296.22 45.0695L293.02 44.8095L289.88 44.3595L286.81 43.6995L283.8 42.8395L279.94 41.4095L276.2 39.6295L272.57 37.4995L269.05 35.0295L264.33 31.0195L260.11 26.5895L256.66 22.0995L253.64 17.2495L253.59 17.1495L253.49 16.6495L253.6 16.1595L253.89 15.7495L254.33 15.4995L255.94 14.8395L257.64 13.8595L258.61 13.5295L259.95 13.5195Z" fill="#9A9DA5" fill-opacity="0.996"/>
<path d="M298.931 38.2183L294.351 37.8683L289.951 36.9183L287.661 36.1683L284.481 34.8883L281.411 33.4283L278.461 31.8083L275.631 29.9983L270.471 25.9983L265.761 21.3283L263.471 18.2683L260.781 13.7383L261.521 14.4483L262.811 16.1283L264.511 18.7383L267.451 22.2083L270.591 25.3583L273.941 28.1683L277.501 30.6583L282.351 33.3483L287.541 35.5083L293.061 37.1283L298.931 38.2183Z" fill="#9A9DA5" fill-opacity="0.996"/>
<path d="M182.61 15.4492L182.07 17.6792L181.98 19.4292L182.46 20.7992L183.4 21.7192L184.83 22.3292L182.18 21.7892L181.79 21.5692L181.59 21.1692L181.5 19.2992L181.73 16.9592L182.02 15.9892L182.53 15.4792L182.61 15.4492Z" fill="#9A9DA5" fill-opacity="0.996"/>
<path d="M298.98 18.1785L296.86 17.2085L295.57 16.2285L297.45 16.9285L298.98 18.1785Z" fill="#9A9DA5" fill-opacity="0.996"/>
<path d="M299.781 30.109L296.291 29.659L292.921 28.939L289.671 27.959L286.541 26.709L283.511 25.179L280.591 23.369L277.801 21.299L275.131 18.959L278.111 21.219L281.201 23.239L284.381 25.029L287.671 26.579L293.571 28.689L299.781 30.109Z" fill="#9A9DA5" fill-opacity="0.996"/>
<path d="M308.251 26.9197L299.941 18.9297L302.491 20.7097L304.801 22.7397L306.621 24.7297L308.251 26.9197Z" fill="#9A9DA5" fill-opacity="0.996"/>
<path d="M236.141 33.9288L232.991 42.6888L232.922 43.0788L233.051 43.6288L233.411 44.0587L233.931 44.2688L234.491 44.2188L238.852 42.5587L242.581 40.8087L246.191 38.8087L249.701 36.5587L253.102 34.0388L253.602 33.2088L253.401 32.2588L246.641 21.9888L246.422 21.8188L246.091 21.9688L243.602 24.3788L241.281 26.9188L238.581 30.3188L236.141 33.9288L236.232 33.0488L236.401 32.6988L238.521 29.5287L240.831 26.5188L245.561 21.3288L246.011 21.0488L246.531 20.9688L247.042 21.1188L247.431 21.4588L247.521 21.5888L254.011 32.8288L254.111 33.3888L253.841 33.8888L249.141 37.6288L244.102 40.7588L239.971 42.7588L235.651 44.3988L233.401 44.8288H233.311L232.701 44.5388L232.521 43.8888L233.201 40.6788L234.251 37.6288L236.141 33.9288Z" fill="#9A9DA5" fill-opacity="0.996"/>
<path d="M228.1 30.7585L224.54 41.3985L224.48 41.5385L223.9 41.9485L223.21 41.7585L220.04 39.4585L216.63 37.7485L213.06 36.6385L209.26 36.0985L204.68 35.9685L199.58 36.1485L199 36.0085L198.58 35.5785L197.22 33.1685L195.65 30.8085L191.84 26.2285L193.52 27.6485L195.08 29.3585L196.53 31.3785L197.87 33.6985L198.37 34.3085L199.26 34.9785L200.02 35.2885L201.03 35.3885L207.62 35.4485L210.29 35.7285L213.63 36.4485L216.91 37.5885L220.13 39.1285L223.28 41.0785L223.81 41.1585L224.2 40.8085L224.24 40.6885L224.55 39.2785L225.99 34.9385L228.1 30.7585Z" fill="#9A9DA5" fill-opacity="0.996"/>
<path d="M323.21 37.8498L318.93 28.0098L320.26 30.1298L321.38 32.3398L322.43 35.0298L323.21 37.8498Z" fill="#9A9DA5" fill-opacity="0.996"/>
<path d="M306.83 30.1484L307.92 29.7484L308.8 29.1284L309.23 28.6484H309.42L309.89 28.8784L310.11 29.3984L309.84 29.8784L309.68 29.9584L308.37 30.2084L306.83 30.1484Z" fill="#9A9DA5" fill-opacity="0.996"/>
<path d="M182.181 30.4291L182.851 31.6591L183.751 32.6191L184.501 33.1091L184.901 33.2291L184.711 32.8691L182.621 30.2491L184.721 31.1691L186.481 32.4591L187.581 33.6591L187.771 33.8791L188.201 34.2191L188.831 34.7891L189.291 35.6191V36.0991L188.821 36.2691H167.051L166.211 36.1691L165.811 35.8791L165.861 35.3891L166.351 34.6991L168.141 32.9691L170.381 31.2091L172.171 30.1391L174.051 29.4391L175.211 29.1891L176.741 29.0391L178.871 29.1291L181.021 29.5591L181.771 29.8891L182.161 30.3591L182.181 30.4291ZM177.961 29.9442L177.552 29.6628L176.569 29.5491L175.587 29.6697L175.181 29.954L175.589 30.2354L176.572 30.3491L177.554 30.2285L177.961 29.9442ZM172.381 30.7191L172.371 30.7291L172.461 31.0791L172.801 31.1391L172.981 30.8291L172.941 30.5791L172.691 30.5191H172.661L172.381 30.7191ZM169.101 34.4891L168.911 33.8891L168.461 33.9191L167.401 34.9391L167.261 35.2791L167.611 35.4191L168.451 35.3391L168.941 35.0191L169.101 34.4891ZM187.171 34.8291L187.451 35.0391L187.891 35.1091L187.741 34.5691L186.961 33.7791L186.611 33.6591L186.201 33.6991L186.281 34.1091L186.791 34.4991L187.171 34.8291ZM183.871 34.8728L183.743 34.5612L183.432 34.4312L170.752 34.387L170.441 34.5148L170.311 34.8254L170.311 34.8654L170.438 35.177L170.749 35.307L183.429 35.3512L183.74 35.2234L183.87 34.9128L183.871 34.8728Z" fill="#9A9DA5" fill-opacity="0.996"/>
<path d="M313.741 38.8189L312.681 38.5289L311.621 38.4389L313.061 38.1289L313.741 38.3289V38.8189Z" fill="#9A9DA5" fill-opacity="0.996"/>
<path d="M293.97 53.4191L289.56 52.9391L285.25 52.0791L279.86 50.4391L274.62 48.1891L268 44.4991L261.57 40.0691L260.98 39.7591L260.31 39.6491L259.65 39.7691L259.06 40.0991L253.16 44.7791L259.3 38.9791L260.15 38.6191L261.02 38.9291L266.67 43.1791L272.67 46.7291L277.66 49.0491L282.87 50.9391L288.31 52.3891L293.97 53.4191Z" fill="#9A9DA5" fill-opacity="0.996"/>
<path d="M314.921 44.1991L315.171 43.1691L315.161 42.0291L314.871 40.7591L314.311 39.3691L315.521 41.3791L315.801 42.3691L315.861 43.3491L315.791 43.9291L315.541 44.3591L314.921 44.1991Z" fill="#9A9DA5" fill-opacity="0.996"/>
<path d="M324.08 40.459L324.8 43.029L325.77 48.289L326.12 53.699L326.09 76.669L326.29 78.369L326.92 80.099L326.19 80.189L325.96 79.849L325.91 79.199L326.13 69.419L325.89 59.699L325.21 50.049L324.08 40.459Z" fill="#9A9DA5" fill-opacity="0.996"/>
<path d="M313.861 44.5298L311.301 45.0798L307.891 45.1398L309.831 44.7098L311.791 44.5098L313.861 44.5298Z" fill="#9A9DA5" fill-opacity="0.996"/>
<path d="M137.51 120.259L139.95 121.679L142.71 122.689L145.77 123.269L149.14 123.439L180.02 123.309L206.64 123.619L209.45 123.449L212.09 122.799L215.04 121.399L217.76 119.319L219.6 117.269L220.93 114.989L221.79 112.339L222.1 109.449L222.24 83.9888L222.15 58.1988L221.86 55.5188L221.28 53.5688L220.4 51.6788L219.02 49.6888L217.18 47.8788L214.89 46.2488L212.15 44.7988L215.28 46.0188L217.91 47.8188L219.76 49.8288L221.24 52.2688L222.09 54.7288L222.5 57.7688L222.71 63.4588L222.82 110.449V110.699L222.55 112.669L221.81 114.639L220.62 116.589L218.96 118.529L215.89 121.269L212.93 123.079L211.62 123.549L209.97 123.879L205.66 124.169L175.44 124.229L147.9 123.969L145.24 123.769L142.82 123.239L140.63 122.389L138.68 121.219L137.51 120.259Z" fill="#9A9DA5" fill-opacity="0.996"/>
<path d="M253.16 44.7793L252.72 45.0793L249.59 47.0793L246.36 48.9093L239.55 52.0693L237.69 52.7393L235.04 53.4393L232.31 53.8693L231.86 54.0493L231.57 54.4393L231.08 56.5493L231.16 58.4293L231.33 58.8393L231.7 59.1093L235.34 60.5793L231.44 59.6893L230.89 59.2993L230.78 58.6393L230.79 58.6193L230.93 57.9893L231.01 56.4793L230.74 54.9093L230.73 54.8693L230.87 54.0593L231.56 53.5893L236.79 52.3193L241.82 50.5693L247.22 48.0293L252.37 44.8993L253.16 44.7793Z" fill="#9A9DA5" fill-opacity="0.996"/>
<path d="M125.131 52.6885L125.541 50.5185L126.291 48.4985L127.081 47.0685L128.071 45.7285L125.131 52.6885Z" fill="#9A9DA5" fill-opacity="0.996"/>
<path d="M314 138.439L315.51 138.569L316.6 138.249L316.94 137.909L317.04 137.469L317.24 52.5586L317.82 60.1686L318.01 69.1786L317.72 138.399L317.59 138.839L317.24 139.089L317.2 139.099L315.73 139.159L314 138.439Z" fill="#9A9DA5" fill-opacity="0.996"/>
<path d="M315.14 53.1688L313.73 53.6288L313.41 53.9788L313.28 54.4288L312.33 69.7688L312.64 54.8688L312.76 53.8388L313.09 53.2487H313.1L313.93 52.9688L315.14 53.1688Z" fill="#9A9DA5" fill-opacity="0.996"/>
<path d="M304.231 65.0102L304.071 55.5302L303.841 54.8702L303.221 54.5902L297.551 53.8602L300.581 53.6602L303.531 53.9302L304.021 54.0202L304.411 54.2302L304.531 54.6502L304.231 65.0102Z" fill="#9A9DA5" fill-opacity="0.996"/>
<path d="M113.99 65.6495L115.42 63.6995L116.66 62.5294L118.2 61.4595L122.8 59.2595L123.44 58.9895L123.81 58.7195L123.99 58.3395L124.74 55.4395L125 56.9295L124.87 58.3295L124.72 58.8094L124.48 59.1995L124.06 59.4395L120.47 60.8495L117.25 62.7695L115.56 64.1295L113.99 65.6495Z" fill="#9A9DA5" fill-opacity="0.996"/>
<path d="M99.6508 62.5088L98.4408 61.2188L97.0508 60.4588L95.3708 60.2088L80.6208 60.3588L65.8008 60.0788L72.9608 59.5588L80.1308 59.2988L87.8208 59.3088L95.5208 59.6288L97.2508 59.9688L98.5608 60.7588L99.1908 61.5388L99.6508 62.5088Z" fill="#9A9DA5" fill-opacity="0.996"/>
<path d="M194.382 101.38L197.272 100.8L199.962 99.9296L202.442 98.7896L204.722 97.3496L206.582 95.8296L208.282 94.0696L210.632 90.8296L212.282 87.3296L213.022 84.7096L213.422 81.9696L213.452 78.9396L213.052 75.9996L212.532 74.0696L211.812 72.1796L209.772 68.5296L207.802 66.0896L205.532 64.0596L202.892 62.4096L199.942 61.1896L197.882 60.6996L195.252 60.3896L188.282 60.2996L174.982 60.4596L161.602 60.0996L167.612 59.6296L174.042 59.3496L188.142 59.3696L196.262 59.8596L198.442 60.2196L200.432 60.7696L202.252 61.4996L203.892 62.4196L205.772 63.7696L207.492 65.2396L209.042 66.8396L210.412 68.5596L211.022 69.4296L211.732 70.6096L212.602 72.4096L213.262 74.3296L213.722 76.3596L213.972 78.4996L214.032 80.8096L213.872 83.0496L213.492 85.2096L212.902 87.2996L211.942 89.5996L210.702 91.7996L209.172 93.8996L207.362 95.9096L204.912 97.9896L202.222 99.5796L200.402 100.32L198.492 100.87L196.482 101.23L194.382 101.38Z" fill="#9A9DA5" fill-opacity="0.996"/>
<path d="M426.991 92.8786L425.711 86.9186L424.851 83.7686L423.821 81.2286L421.901 77.7486L419.711 74.5786L417.271 71.7086L414.571 69.1486L410.891 66.4086L406.811 64.1386L402.341 62.3286L397.481 60.9786L394.571 60.5086L390.931 60.2186L381.421 60.1586L363.721 60.4386L344.411 60.3586L343.501 60.5286L342.521 61.0586L342.411 61.1386L341.811 61.7686L341.371 62.5986L340.451 65.0986L340.681 63.6286L341.091 62.3786L341.681 61.3486L342.451 60.5486L343.961 59.7486L345.881 59.4586L363.211 59.3086L382.221 59.3686L388.051 59.5286L393.021 59.8886L397.141 60.4586L400.391 61.2386L405.121 62.9686L409.421 65.0686L413.281 67.5386L416.701 70.3886L419.511 73.3886L421.871 76.6686L423.831 80.2886L425.341 84.1986L426.391 88.3986L426.991 92.8786Z" fill="#9A9DA5" fill-opacity="0.996"/>
<path d="M161.6 60.0996L174.98 60.4596L188.28 60.2996L195.25 60.3896L197.88 60.6996L199.94 61.1896L202.89 62.4096L205.53 64.0596L207.8 66.0896L209.77 68.5296L211.81 72.1796L212.53 74.0696L213.05 75.9996L213.45 78.9396L213.42 81.9696L213.02 84.7096L212.28 87.3296L210.63 90.8296L208.28 94.0696L206.58 95.8296L204.72 97.3496L202.44 98.7896L199.96 99.9296L197.27 100.8L194.38 101.38L158.06 101.22L154.45 99.7996L151.28 98.0196L148.56 95.9096L146.27 93.4396L144.37 90.4996L142.94 87.1796L142.25 84.6396L141.9 82.0696L141.93 78.8896L142.45 75.6796L143.49 72.4296L145.02 69.1496L145.45 68.6196L149.29 64.4996H149.31L149.46 64.3996L152.42 62.7096L155.51 61.4396L159.92 60.3696L161.6 60.0996ZM152.66 72.1496L150.32 75.8596L149.61 78.0796L149.35 80.2996L149.63 82.8796L150.52 85.4696L150.71 85.6296L150.88 86.2796L151.69 87.8096L152.63 89.1596L153.69 90.3196L154.89 91.2996L156.2 92.0796L157.63 92.6796L159.19 93.0896L160.88 93.3296L195.28 93.3496L197.39 92.9196L199.11 92.2496L200.74 91.2996L201.16 90.8996L201.32 90.4896V90.4296L203.49 88.6296L204.97 86.4796L205.57 84.9096L205.88 83.1896L206.08 81.5696V79.9096L205.48 76.4096L204.76 74.7296L203.89 73.2296L202.86 71.9096L201.68 70.7796L199.71 69.4496L197.42 68.5096L194.81 67.9596L191.88 67.7796L166.4 67.5596L161.46 67.7596L159.3 68.1096L157.36 68.6296L157.21 68.6796L155.96 69.2296L154.79 69.9996L152.66 72.1496Z" fill="#16335D"/>
<path d="M159.921 60.3691L155.511 61.4391L152.421 62.7091L149.461 64.3991L151.601 62.6891L153.931 61.4491L156.801 60.6091L159.921 60.3691Z" fill="#9A9DA5" fill-opacity="0.996"/>
<path d="M55.4505 60.7793L49.7405 62.6893L45.6405 64.3193L41.8905 66.2893L38.4905 68.6193L35.4505 71.3093L33.0405 73.9793L30.9105 76.9393L29.0505 80.1693L27.4705 83.6793L26.2905 87.5593L24.9805 91.3893L26.1805 86.1393L27.9105 81.3493L30.1805 76.9993L32.9905 73.0893L36.2105 69.7393L39.9405 66.8093L44.1605 64.2993L48.8905 62.2093L51.8805 61.3393L55.4505 60.7793Z" fill="#9A9DA5" fill-opacity="0.996"/>
<path d="M292.031 65.5099L290.661 63.8699L289.041 62.7699L287.321 62.2599L285.381 62.1999L286.361 61.9599L287.371 61.9199L288.381 62.0899L289.341 62.4499L290.221 62.9999L290.981 63.7099L292.031 65.5099Z" fill="#9A9DA5" fill-opacity="0.996"/>
<path d="M261.982 72.6492L263.472 71.8492L264.622 70.9592L265.422 69.9792L265.882 68.9092L265.932 67.1192L265.192 65.1192L264.202 63.8192L262.932 62.9892L261.672 62.6792L260.302 62.7592L259.392 63.0392L258.172 63.8092L257.132 64.9892L256.402 66.4292L256.192 67.8492L256.412 68.9992L256.992 70.1292L257.922 71.2492L259.202 72.3492L258.152 71.7892L257.252 71.0092L256.542 70.0492L256.072 68.9592L255.852 67.2992L256.152 65.6492L256.962 64.1692L258.192 63.0292L260.022 62.2492L262.022 62.1992L263.882 62.8992L265.362 64.2292L266.202 65.8792L266.422 67.7192L266.002 69.5192L264.992 71.0592L263.612 72.0992L261.982 72.6492Z" fill="#9A9DA5" fill-opacity="0.996"/>
<path d="M285.381 62.1992L287.321 62.2592L289.041 62.7692L290.661 63.8692L292.031 65.5092L292.061 65.5892L292.011 68.0292L291.711 69.0592L291.221 69.9492L290.111 71.0592L288.971 71.6992L287.801 71.9992L286.531 71.9592L285.211 71.5392L283.761 70.5192L283.131 69.6892L282.681 68.6992L282.311 66.1992L282.451 65.3892L282.891 64.5192L284.651 62.5392L285.381 62.1992Z" fill="#16335D"/>
<path d="M261.981 72.6497L260.571 72.6897L259.201 72.3497L257.921 71.2497L256.991 70.1297L256.411 68.9997L256.191 67.8497L256.401 66.4297L257.131 64.9897L258.171 63.8097L259.391 63.0397L260.301 62.7597L261.671 62.6797L262.931 62.9897L264.201 63.8197L265.191 65.1197L265.931 67.1197L265.881 68.9097L265.421 69.9797L264.621 70.9597L263.471 71.8497L261.981 72.6497Z" fill="#16335D"/>
<path d="M284.651 62.5391L282.891 64.5191L282.451 65.3891L282.311 66.1991L282.681 68.6991L283.131 69.6891L283.761 70.5191L285.211 71.5391L286.531 71.9591L287.801 71.9991L288.971 71.6991L290.111 71.0591L291.221 69.9491L291.711 69.0591L292.011 68.0291L292.061 65.5891L292.351 67.6091L291.891 69.5691L290.741 71.1791L289.081 72.2291L288.741 72.3391L287.731 72.5291L286.701 72.5091L285.691 72.2691L284.741 71.8391L283.891 71.2191L283.171 70.4491L282.611 69.5491L282.231 68.5491L282.041 66.7891L282.421 65.0891L283.321 63.6091L284.651 62.5391Z" fill="#9A9DA5" fill-opacity="0.996"/>
<path d="M149.291 64.5L145.451 68.62L146.161 67.18L147.121 65.97L148.121 65.15L149.291 64.5Z" fill="#9A9DA5" fill-opacity="0.996"/>
<path d="M205.48 76.4086L204.25 74.3386L202.86 72.5786L201.29 71.1186L199.56 69.9686L197.63 69.1086L195.52 68.5586L190.95 68.1686L184.14 68.3686L178.69 68.5386L175.12 68.4386L166.16 68.2986L159.37 68.5986L157.93 68.8986L156.34 69.5986L154.58 70.6786L152.66 72.1486L154.79 69.9986L155.96 69.2286L157.21 68.6786L157.36 68.6286L159.3 68.1086L161.46 67.7586L166.4 67.5586L191.88 67.7786L194.81 67.9586L197.42 68.5086L199.71 69.4486L201.68 70.7786L202.86 71.9086L203.89 73.2286L204.76 74.7286L205.48 76.4086Z" fill="#9A9DA5" fill-opacity="0.996"/>
<path d="M112.581 67.9688L111.131 72.2988L111.251 70.7588L111.691 69.3588L112.581 67.9688Z" fill="#9A9DA5" fill-opacity="0.996"/>
<path d="M123.691 94.4586L124.011 94.0186L124.061 93.7086L123.991 84.3686L124.131 70.9486L124.021 69.6186L123.641 68.5086L124.311 68.0586L124.701 68.2586L125.061 68.7986L125.091 68.9286V94.5586L124.971 94.9186L124.661 95.1286L124.161 95.1986L123.831 95.0786L123.691 94.4586Z" fill="#9A9DA5" fill-opacity="0.996"/>
<path d="M378.401 68.88L369.901 69.44L361.611 69.72L353.521 69.71L345.641 69.42L344.831 69.34L343.501 69.02L342.211 68.5L378.401 68.88Z" fill="#9A9DA5" fill-opacity="0.996"/>
<path d="M96.7 68.9195L91.37 69.3995L86.03 69.6495L77.27 69.5495L68.5 68.8094L81.9 68.4395L95.25 68.8295L96.7 68.9195Z" fill="#9A9DA5" fill-opacity="0.996"/>
<path d="M60.2714 68.7383L55.9914 69.4683L52.0214 70.6383L48.3814 72.2483L45.0514 74.3083L42.4114 76.4583L40.0114 78.9583L37.8514 81.7883L35.9414 84.9583L36.3114 83.6383L38.5014 80.1983L40.9514 77.2083L43.6714 74.6683L46.6714 72.5783L49.7114 71.0283L53.0014 69.8683L56.5214 69.1083L60.2714 68.7383Z" fill="#9A9DA5" fill-opacity="0.996"/>
<path d="M122.99 68.9484L121.41 70.5884L120.33 72.1684L119.48 73.9284L119.7 72.1384L120.67 70.3384L122.39 68.7784L122.86 68.6484L122.99 68.9484Z" fill="#9A9DA5" fill-opacity="0.996"/>
<path d="M406.41 73.4786L402.81 71.6586L399.09 70.2286L396.16 69.4086L393.16 68.8086L396.73 69.1086L400.1 69.9786L403.36 71.4386L406.41 73.4786Z" fill="#9A9DA5" fill-opacity="0.996"/>
<path d="M158.06 101.218L154.31 99.9884L151.04 98.3684L148.24 96.3684L145.91 93.9884L144.08 91.2584L142.71 88.1584L141.79 84.6884L141.34 80.8384L141.35 78.9184L141.69 76.4384L142.42 73.9884L143.53 71.5584L145.02 69.1484L143.49 72.4284L142.45 75.6784L141.93 78.8884L141.9 82.0684L142.25 84.6384L142.94 87.1784L144.37 90.4984L146.27 93.4384L148.56 95.9084L151.28 98.0184L154.45 99.7984L158.06 101.218Z" fill="#9A9DA5" fill-opacity="0.996"/>
<path d="M235.891 91.8496L236.001 82.9796L235.711 74.3296L235.491 72.8996L234.391 70.4396L234.211 70.0996L235.251 71.3396L236.011 72.8996L236.511 74.7696L236.741 76.9596L236.881 83.6396L236.771 89.5796L236.701 90.1196L236.121 91.4396L235.891 91.8496Z" fill="#9A9DA5" fill-opacity="0.996"/>
<path d="M296.18 99.2888L298.29 95.3688L299.93 91.6188L301.1 88.0388L301.79 84.6288L303.77 71.2188L303.29 78.0587L302.1 85.7388L301.16 89.5888L299.86 93.1288L298.2 96.3688L296.18 99.2888Z" fill="#9A9DA5" fill-opacity="0.996"/>
<path d="M312.24 73.459L311.42 83.109L310.97 86.549L310.55 91.349L310.46 96.199L310.09 133.379L309.75 135.339L309.76 136.259L310.22 137.229L311.16 138.099H310.34L309.76 137.829L309.45 137.339L309.35 136.629L309.15 93.219L309.35 90.619L310 87.389L311.11 81.609L312.24 73.459Z" fill="#9A9DA5" fill-opacity="0.996"/>
<path d="M416.691 85.1884L413.331 80.3984L410.391 77.0184L407.121 73.8984L410.641 76.6884L413.641 79.9384L416.171 83.6884L416.391 84.1384L416.691 85.1884Z" fill="#9A9DA5" fill-opacity="0.996"/>
<path d="M168.841 78.5496L167.271 76.6896L165.411 75.5196L163.481 75.0696L161.311 75.1996L162.411 74.9196L163.551 74.8496L164.681 74.9896L165.751 75.3496L166.741 75.9096L167.611 76.6496L168.321 77.5396L168.841 78.5496Z" fill="#9A9DA5" fill-opacity="0.996"/>
<path d="M192.36 74.7988L193.67 75.5188L195.2 76.0688L195.6 76.2488L195.96 76.5988L197.35 78.9888L197.66 80.0388L197.71 80.9888L197.23 83.0388L196.23 84.5688L195.34 85.2488L194.24 85.7288L193.12 85.9788L192.02 86.0088L190.58 85.7188L189.16 85.0488L188.17 84.2788L187.45 83.3588L186.95 82.0588L186.82 80.5488L187.07 78.8088L187.7 76.8488L188.66 75.9688L189.79 75.3188L191.05 74.9188L192.36 74.7988Z" fill="#16335D"/>
<path d="M187.701 76.8488L187.071 78.8088L186.821 80.5488L186.951 82.0588L187.451 83.3588L188.171 84.2788L189.161 85.0488L190.581 85.7188L192.021 86.0088L193.121 85.9788L194.241 85.7288L195.341 85.2488L196.231 84.5688L197.231 83.0388L197.711 80.9888L197.661 80.0388L197.351 78.9888L195.961 76.5988L195.601 76.2488L195.201 76.0688L193.671 75.5188L192.361 74.7988L193.561 74.9288L194.711 75.2888L195.761 75.8688L196.671 76.6288L197.411 77.5588L197.941 78.5988L198.251 79.7288L198.321 80.8988L197.991 82.5588L197.441 83.6788L196.661 84.6688L195.681 85.4688L194.541 86.0488L193.311 86.3788L192.021 86.4588L190.751 86.2688L189.551 85.8188L188.581 85.2088L187.741 84.4288L187.071 83.5188L186.591 82.4988L186.271 80.5588L186.651 78.5888L187.701 76.8488Z" fill="#9A9DA5" fill-opacity="0.996"/>
<path d="M161.311 75.1984L163.481 75.0684L165.411 75.5184L167.271 76.6884L168.841 78.5484L169.181 79.7684L169.261 81.0284L169.071 82.2884L168.621 83.4684L166.591 85.3384L165.711 85.8584L164.931 86.0984L162.431 86.1084L161.341 85.8384L160.371 85.3784L159.361 84.5984L158.501 83.5583L158.241 83.1084L157.871 81.9584L157.811 80.6584L158.321 77.6084L159.611 76.1484L161.311 75.1984Z" fill="#16335D"/>
<path d="M150.322 75.8594L150.122 77.6494L150.062 81.5394L150.522 85.4694L149.632 82.8794L149.352 80.2994L149.612 78.0794L150.322 75.8594Z" fill="#9A9DA5" fill-opacity="0.996"/>
<path d="M109.42 80.3584L110.73 76.3984L110.94 78.9984L110.75 79.7984L110.35 80.2684L109.42 80.3584Z" fill="#9A9DA5" fill-opacity="0.996"/>
<path d="M168.62 83.4694L167.95 84.4994L167.08 85.3794L166.05 86.0494L164.9 86.4994L163.69 86.6994L162.46 86.6394L161.26 86.3294L160.16 85.7894L159.71 85.4694L158.91 84.7194L158.26 83.8494L157.78 82.8594L157.49 81.8094L157.4 80.7194L157.52 79.6294L157.82 78.5794L158.32 77.6094L157.81 80.6594L157.87 81.9594L158.24 83.1094L158.5 83.5594L159.36 84.5994L160.37 85.3794L161.34 85.8394L162.43 86.1094L164.93 86.0994L165.71 85.8594L166.59 85.3394L168.62 83.4694Z" fill="#9A9DA5" fill-opacity="0.996"/>
<path d="M407.26 146.909V147.659V201.909L407.17 202.659L407.15 202.669L407.36 215.989L407.23 229.299L406.61 245.429L406.37 221.989L406.46 194.199L406.53 161.319L406.27 117.949L406.54 97.4488L406.42 94.5388L405.93 91.8788L405.08 89.4688L403.87 87.3188L401.83 84.9688L399.21 83.0188L396.02 81.4588L392.25 80.2988L395.33 80.9988L398.05 82.0388L400.42 83.4188L402.42 85.1488L403.92 86.9988L405.13 89.1188L406.04 91.5288L406.67 94.2088L407.12 99.7788L407.26 109.449L407.25 128.179L407.26 146.909Z" fill="#9A9DA5" fill-opacity="0.996"/>
<path d="M58.3906 80.5684L55.4606 81.6384L52.9206 82.9884L50.7506 84.6384L48.9606 86.5784L47.2406 89.4384L46.5706 91.4184L46.1006 94.0284L45.8206 97.2784L45.7306 101.168L45.7506 193.048L45.4806 284.908L45.5606 287.148L45.8606 288.888L46.4006 290.228L47.2406 291.298L47.9906 291.838L48.9206 292.218L51.1306 292.508L140.361 292.608L141.131 292.868L141.581 293.528L141.591 293.578L141.971 296.048L141.721 298.688L140.921 294.118L140.741 293.748L140.371 293.558L137.861 293.218L135.371 293.228L130.391 293.598L55.6406 293.608L53.0606 293.418L49.6506 292.818L48.7206 292.638L47.1306 291.988L46.2206 291.138L45.6706 290.188L45.2706 288.928L44.9606 285.448L45.0106 146.698L45.0006 128.198L44.8906 112.568L45.1006 97.1884L45.3906 93.9384L46.0806 91.0284L47.1806 88.4384L48.6806 86.1884L50.5306 84.3083L52.7706 82.7484L55.3906 81.4984L58.3906 80.5684Z" fill="#9A9DA5" fill-opacity="0.996"/>
<path d="M201.32 90.4295L205.88 83.1895L205.57 84.9095L204.97 86.4795L203.49 88.6295L201.32 90.4295Z" fill="#9A9DA5" fill-opacity="0.996"/>
<path d="M35.9402 84.959L34.6002 89.809L34.2402 92.159L34.1002 94.449L33.8902 99.879L33.4302 104.479L33.2402 99.899L33.3002 94.229L33.4902 91.909L33.9202 89.729L34.5802 87.669L35.4802 85.739L35.9402 84.959Z" fill="#9A9DA5" fill-opacity="0.996"/>
<path d="M418.081 303.049L418.181 138.949L418.191 95.4495L417.811 90.5895L416.691 85.1895L417.571 87.3995L418.211 89.5495L418.601 91.6495L418.741 93.6795L418.951 121.949L419.161 227.439L419.131 267.449L419.181 293.449L419.201 298.099L418.891 302.789L418.791 303.029L418.341 303.289L418.081 303.049Z" fill="#9A9DA5" fill-opacity="0.996"/>
<path d="M160.881 93.3293L159.191 93.0893L157.631 92.6793L156.201 92.0793L154.891 91.2993L153.691 90.3193L152.631 89.1593L151.691 87.8093L150.881 86.2793L152.931 88.8493L155.341 90.8893L157.951 92.3393L160.881 93.3293Z" fill="#9A9DA5" fill-opacity="0.996"/>
<path d="M117.512 284.029H54.5716L54.0616 283.819L53.8516 283.309V96.9391L54.1516 94.4591L55.0316 92.3291L56.2716 90.7791L57.9616 89.4891L59.1116 89.0391L60.8316 88.7291L65.9816 88.5391L88.1816 88.7591L110.012 88.7391L110.472 88.8891L110.742 89.2891L111.652 91.9891L112.802 94.4591L114.202 96.6991L115.852 98.7091L117.572 100.359L119.502 101.809L121.632 103.069L123.972 104.139L124.452 104.539L124.622 105.139L124.572 110.149L124.872 113.879L125.582 117.139L126.752 120.079L128.252 122.549L130.122 124.779L132.052 126.599L134.082 128.169L136.222 129.469L138.462 130.529L141.362 131.469L144.422 132.029L149.752 132.289L160.032 132.419L160.232 132.479L160.332 132.679L161.372 139.879V139.889L161.182 140.099L147.032 140.169L133.502 140.009L129.522 140.019L126.192 140.229L123.512 140.639L121.492 141.249L119.222 142.419L117.252 143.909L115.462 145.859L114.012 148.189L112.892 150.889L112.112 153.959L111.812 154.469L111.262 154.659L108.042 154.829L105.102 155.389L102.422 156.349L100.022 157.699L98.0116 159.319L96.2516 161.289L94.7116 163.609L93.4216 166.269L93.0816 167.479L92.8516 169.249L92.6716 174.489L92.9616 248.039L93.1216 252.709L93.5316 255.849L94.0916 257.789L94.8616 259.669L97.0716 263.469L100.182 267.319L104.502 271.589L117.472 283.589L117.642 283.829L117.652 283.859L117.512 284.029Z" fill="#52B9F9"/>
<path d="M267.88 89.8797L262.84 89.1197L263.74 88.7697L264.69 88.6797L265.7 88.8297L267.88 89.8797Z" fill="#9A9DA5" fill-opacity="0.996"/>
<path d="M260.951 93.4793L262.191 95.4293L263.541 97.0093L264.981 98.2193L266.521 99.0693L267.521 99.4493L270.331 100.139L273.301 100.349L276.441 100.079L279.741 99.3293L281.361 98.7393L282.771 97.9893L283.981 97.0793L284.981 96.0093L285.831 94.6693L286.421 92.9293L286.311 91.4193L285.931 90.6693L285.321 89.9893L284.311 89.3893L283.451 89.2493L282.551 89.3493L280.041 90.2993L279.871 90.3793L277.341 91.2493L274.801 91.5793L273.131 91.5093L271.461 91.2193L269.781 90.6893L268.101 89.9393L270.931 90.2793L273.721 90.3593L276.451 90.1993L279.141 89.7893L282.791 88.7993L283.771 88.7793L285.571 89.7093L286.251 90.4193L286.701 91.2393L286.961 92.4393L286.811 93.7093L286.261 94.9993L285.311 96.2293L283.181 98.2093L281.611 99.1793L279.281 99.9093L276.961 100.399L274.651 100.639H272.361L270.031 100.389L267.711 99.8793L265.491 99.0093L263.651 97.7193L262.081 95.8393L260.951 93.4793Z" fill="#9A9DA5" fill-opacity="0.996"/>
<path d="M397.541 284.009H358.681L358.201 283.809L358.001 283.339L358.011 179.179L357.921 174.499L357.641 170.489L357.191 167.129L356.551 164.439L355.351 161.029L353.891 157.829L352.171 154.839L350.181 152.039L348.261 149.789L346.141 147.689L344.061 145.929L341.881 144.379L339.621 143.029L337.271 141.879L334.761 140.909L332.161 140.149L329.451 139.609L326.661 139.279L326.151 139.029L325.941 138.499V89.1785L326.051 88.8485L326.401 88.7285L389.631 88.8185L391.411 88.9285L392.971 89.2785L394.321 89.8585L395.471 90.6685L396.431 91.7685L397.171 93.1185L397.611 94.6085L397.891 96.6085L398.011 102.289L397.991 103.699L398.101 283.449L397.941 283.849L397.541 284.009Z" fill="#52B9F9"/>
<path d="M262.841 89.1191L267.881 89.8791L267.871 89.7791L268.101 89.9391L269.781 90.6891L271.461 91.2191L273.131 91.5091L274.801 91.5791L277.341 91.2491L279.871 90.3791L280.041 90.2991L282.551 89.3491L283.451 89.2491L284.311 89.3891L285.321 89.9891L285.931 90.6691L286.311 91.4191L286.421 92.9291L285.831 94.6691L284.981 96.0091L283.981 97.0791L282.771 97.9891L281.361 98.7391L279.741 99.3291L276.441 100.079L273.301 100.349L270.331 100.139L267.521 99.4491L266.521 99.0691L264.981 98.2191L263.541 97.0091L262.191 95.4291L260.951 93.4791L261.111 91.9091L261.641 90.5391L262.841 89.1191Z" fill="#16335D"/>
<path d="M201.321 90.4297V90.4897L201.161 90.8997L200.741 91.2997L199.111 92.2497L197.391 92.9197L195.281 93.3497L201.321 90.4297Z" fill="#9A9DA5" fill-opacity="0.996"/>
<path d="M132.962 93.1387L133.102 101.199L133.002 107.199L133.032 109.859L133.372 112.369L134.012 114.709L134.952 116.899L136.512 119.359L135.132 117.869L134.052 116.209L133.052 113.599L132.662 110.669L132.602 102.789L132.962 93.1387Z" fill="#9A9DA5" fill-opacity="0.996"/>
<path d="M237.941 103.94L237.801 103.64L236.801 102.35L237.361 102.02H237.761L238.041 102.62L237.941 103.94Z" fill="#9A9DA5" fill-opacity="0.996"/>
<path d="M236.691 102.479L234.661 103.449L232.391 104.039L231.751 104.389L231.461 105.049L231.101 109.169L230.971 104.609L231.091 104.169L231.481 103.919L236.691 102.479Z" fill="#9A9DA5" fill-opacity="0.996"/>
<path d="M289.16 106.488L286.14 108.658L282.89 110.178L280.34 110.888L277.67 111.248L279.4 110.758L284.37 108.918L289.16 106.488Z" fill="#9A9DA5" fill-opacity="0.996"/>
<path d="M300.93 109.169L300.23 108.159L300.43 107.679L300.47 107.659L300.77 107.629L301 107.839L301.08 108.119L300.93 109.169Z" fill="#9A9DA5" fill-opacity="0.996"/>
<path d="M299.59 108.639L299.03 109.699L298.28 110.559L297 111.439L297.73 110.249L298.66 109.279L299.59 108.639Z" fill="#9A9DA5" fill-opacity="0.996"/>
<path d="M270.281 111.14L269.021 111.27L267.841 111.11L266.281 110.35L270.281 111.14Z" fill="#9A9DA5" fill-opacity="0.996"/>
<path d="M252.53 124.98L253.3 123.2L253.85 121.42L254.18 119.63L254.3 117.85L254.18 115.95L254.08 115.52L253.58 114.68L252.68 113.97L250.9 112.6L250.09 111.66L254.18 114.4L254.51 114.74L254.65 115.19V118.39L254.26 121.38L253.56 123.57L252.53 124.98Z" fill="#9A9DA5" fill-opacity="0.996"/>
<path d="M294.571 113.219L294.291 121.649L293.601 118.989L293.391 116.729L293.681 114.849L294.461 113.349L294.571 113.219Z" fill="#9A9DA5" fill-opacity="0.996"/>
<path d="M33.5714 114.66L34.2214 123.6L34.1514 132.5L33.5314 140.06L33.1914 127.41L33.5714 114.66Z" fill="#9A9DA5" fill-opacity="0.996"/>
<path d="M284.781 118.209L282.481 119.109L281.371 119.259L280.291 119.209L280.191 119.189L284.781 118.209Z" fill="#9A9DA5" fill-opacity="0.996"/>
<path d="M268.121 119.239L267.491 119.339L266.031 119.219L264.531 118.639L266.161 118.679L268.121 119.239Z" fill="#9A9DA5" fill-opacity="0.996"/>
<path d="M263.191 119.389V120.939L262.971 122.219L262.531 123.489L262.581 121.859L263.191 119.389Z" fill="#9A9DA5" fill-opacity="0.996"/>
<path d="M284.211 141.128L285.471 139.868L287.931 137.248L288.671 136.148L289.071 135.198L289.131 134.758L288.991 134.258L288.201 132.668L286.711 129.568L285.821 127.308L285.311 125.258L285.141 123.358L285.211 121.988L286.091 126.138L287.531 130.028L289.591 133.708L289.821 134.408L289.671 135.128L288.661 136.798L287.481 138.308L285.951 139.818L284.211 141.128Z" fill="#9A9DA5" fill-opacity="0.996"/>
<path d="M294.531 123.77L295.461 126.15L296.731 128.29L298.711 130.55L301.191 132.46L301.391 133.29L300.871 133.14L299.781 132.32L297.441 129.94L295.721 127.24L295.021 125.56L294.531 123.77Z" fill="#9A9DA5" fill-opacity="0.996"/>
<path d="M262.19 124.939L261.8 126.899L261.03 128.649L259.66 130.439L262.19 124.939Z" fill="#9A9DA5" fill-opacity="0.996"/>
<path d="M195.6 132.24L210.22 131.99L211.95 131.8L213.7 131.37L215.48 130.71L217.28 129.81L221.93 127.22L222.22 127.17L222.31 127.45L222.04 139.33L221.8 139.88L221.26 140.1H195.34L194.91 139.96L194.76 139.52V133.08L195.01 132.49L195.6 132.24Z" fill="#52B9F9"/>
<path d="M246.601 128.67L246.881 129.65L246.691 130.17L246.241 130.66L246.031 130.14L246.121 129.43L246.601 128.67Z" fill="#9A9DA5" fill-opacity="0.996"/>
<path d="M249.76 129.389L248.96 130.799L247.6 132.429L247.14 132.799L246.77 132.869L246.43 132.519L249.76 129.389Z" fill="#9A9DA5" fill-opacity="0.996"/>
<path d="M259.661 130.439L258.461 132.639L257.441 133.719L258.541 131.619L259.661 130.439Z" fill="#9A9DA5" fill-opacity="0.996"/>
<path d="M183.29 141.029L185.31 138.709L186.61 136.129L187.16 133.539V133.489L186.91 132.819L186.25 132.539L170.39 132.379L169.26 132.499L168.3 132.899L167.86 133.229L167.62 133.109L167.51 132.529L167.76 132.029L168.27 131.869H186.9L187.59 132.179L187.82 132.899L187.8 132.999L186.35 137.899L185.34 139.669L183.99 140.759L183.29 141.029Z" fill="#9A9DA5" fill-opacity="0.996"/>
<path d="M168.111 134.238L169.651 137.488L172.041 140.938L175.081 144.018L172.421 142.108L171.081 140.738L169.911 139.168L168.911 137.418L168.081 135.478L167.941 134.818L168.071 134.308L168.111 134.238Z" fill="#9A9DA5" fill-opacity="0.996"/>
<path d="M273.111 146.61L270.171 146.27L267.561 145.3L266.291 144.53L265.011 143.57L262.981 141.82L261.101 139.87L259.371 137.73L257.791 135.41L259.891 137.89L262.101 140.17L264.441 142.27L266.901 144.18L268.561 145.21L270.301 145.97L273.111 146.61Z" fill="#9A9DA5" fill-opacity="0.996"/>
<path d="M232.701 139.118L234.421 138.588L236.071 138.378L236.831 138.108L238.021 137.318L237.811 137.948L237.161 138.598L236.091 139.008L234.601 139.188L232.701 139.118Z" fill="#9A9DA5" fill-opacity="0.996"/>
<path d="M330.001 190.039L329.841 190.049L328.171 190.289L326.961 190.999L326.151 192.319L325.881 194.199L325.921 283.469L325.761 283.868L325.361 284.029H310.401H310.371L310.041 283.858L309.941 283.499L318.561 215.159L318.741 212.309L318.561 209.709L318.001 207.439L317.101 205.499L315.351 203.089L313.261 201.139L311.421 199.959L309.381 199.049L307.741 198.599L305.621 198.289L299.911 198.039L262.871 198.189L262.421 197.999L262.231 197.539L262.331 176.279L262.301 172.769L262.061 169.769L261.631 167.269L261.001 165.279L259.191 161.959L258.071 160.539L256.811 159.279L254.781 157.759L252.481 156.559L249.891 155.679L247.021 155.109L245.991 155.059L243.841 154.869L243.451 154.629L243.301 154.199L242.581 149.919L241.991 148.079L241.251 146.429L241.191 146.109L241.401 145.889L250.391 140.699L250.901 140.589L251.301 140.889L254.871 145.239L258.821 149.029L261.941 151.309L265.171 152.989L268.591 154.109L272.041 154.639H274.771L277.471 154.289L280.131 153.599L282.721 152.569L285.221 151.219L287.621 149.559L289.881 147.589L292.001 145.319L295.701 140.829L296.331 140.479L297.021 140.649L300.561 142.909L304.191 144.739L307.901 146.119L311.701 147.069L312.101 147.139L315.441 147.489L320.681 147.609L325.961 147.739L329.261 148.109L333.441 149.279L337.211 151.129L339.571 152.789L341.741 154.769L343.711 157.059L345.481 159.679L347.041 162.579L348.261 165.509L349.141 168.489L349.681 171.509L349.881 175.199L349.781 254.238L349.651 254.548L349.341 254.678H334.561L334.161 254.519L334.001 254.118L333.981 193.949L333.721 192.159L332.951 190.909L331.711 190.219L330.001 190.039Z" fill="#52B9F9"/>
<path d="M284.211 141.129L282.961 142.649L281.511 143.889L280.061 144.749L278.441 145.389L284.211 141.129Z" fill="#9A9DA5" fill-opacity="0.996"/>
<path d="M154.061 148.36L148.261 148.55L147.861 148.28L147.941 147.92L148.051 147.81L148.261 147.76L154.061 148.36Z" fill="#9A9DA5" fill-opacity="0.996"/>
<path d="M167.96 149.129L167.08 148.929L166.37 148.509L165.91 147.999L166.48 147.799L167.22 148.129L167.96 149.129Z" fill="#9A9DA5" fill-opacity="0.996"/>
<path d="M192.581 148.3L187.771 148.58L188.111 148.18L188.861 147.78L189.851 147.67L191.091 147.84L192.581 148.3Z" fill="#9A9DA5" fill-opacity="0.996"/>
<path d="M140.45 152.51L139.52 151.31L138.94 150.04L138.23 148.99L137.04 148.53L132.89 148.36L128.36 148.45L125.61 148.82L123.64 149.66L122.33 150.89L121.52 152.54L121.23 154.59L121.16 231.35L121 239.55L121.05 244.86L121.41 250.12L120.86 248.01L120.66 244.7L120.57 195.31L120.75 154.75L120.86 153.35L121.14 152.11L121.61 151.04L122.26 150.13L123.22 149.29L124.42 148.66L125.85 148.25L127.52 148.04L132.8 147.92L137.84 148.17L138.29 148.31L138.64 148.62L140 151.1L140.45 152.51Z" fill="#9A9DA5" fill-opacity="0.996"/>
<path d="M205.93 148.79L204.08 148.44L204.81 148.05L205.48 148.01L206.11 148.33L206.2 148.47L206.16 148.64L206.14 148.66L205.93 148.79Z" fill="#9A9DA5" fill-opacity="0.996"/>
<path d="M216.881 148.499L216.401 148.739L215.661 149.419L215.111 150.419L211.521 158.939L206.591 169.689L205.041 173.459L203.741 176.019L203.041 177.059L202.291 177.839L201.451 178.259L200.331 178.269L199.071 177.769L197.201 176.569L195.621 175.309L194.341 173.979L193.361 172.589L197.401 176.099L198.931 177.289L200.241 177.739L201.391 177.589L202.511 176.839L203.401 175.459L215.191 149.399L215.811 148.629L216.331 148.459L216.881 148.499Z" fill="#9A9DA5" fill-opacity="0.996"/>
<path d="M234.75 154.549L234.01 152.509L232.89 150.649L231.41 148.969L233.01 149.969L234.1 151.259L234.66 152.769L234.75 154.549Z" fill="#9A9DA5" fill-opacity="0.996"/>
<path d="M148.39 149.16L154.94 163.72L154.71 163.7L154.45 163.42L148.04 149.7L147.99 149.26L148.39 149.16Z" fill="#9A9DA5" fill-opacity="0.996"/>
<path d="M170.24 152.849L170.26 152.089L170 151.139L169.4 150.219L170.3 150.369L170.84 150.989L171.04 151.639L170.98 152.179L170.24 152.849Z" fill="#9A9DA5" fill-opacity="0.996"/>
<path d="M184.56 151.029L197.01 164.469L185.2 152.659L184.38 151.689L184.25 151.149L184.56 151.029Z" fill="#9A9DA5" fill-opacity="0.996"/>
<path d="M165.851 169.58L165.131 169.31L164.911 169.48L161.561 173.57L158.251 176.94L156.421 178.24L154.711 178.69L153.731 178.59L152.851 178.28L151.761 177.45L150.901 176.17L145.791 165.25L140.641 152.97L140.841 152.91L141.121 153.23L146.881 166.37L151.121 175.21L152.261 177L153.411 178.01L154.731 178.38L156.121 178L157.521 176.86L166.071 167.7L166.421 167.52L166.611 167.87L166.481 168.63L165.851 169.58Z" fill="#9A9DA5" fill-opacity="0.996"/>
<path d="M204.56 152.879L204.35 154.339L203.73 155.459L203.32 155.859L204.11 153.649L204.56 152.879Z" fill="#9A9DA5" fill-opacity="0.996"/>
<path d="M167.731 155.33L157.141 165.85L156.711 166.17L156.291 166.32H155.521L155.781 165.86L160.431 161.65L164.881 157.19L165.841 156.33L166.901 155.68L167.731 155.33Z" fill="#9A9DA5" fill-opacity="0.996"/>
<path d="M183.88 198.11H171.5L170.68 197.81L170.32 197.29L170.24 196.67L175.4 158.5L175.59 157.98L175.98 157.59L176.5 157.41L177.05 157.46L178.83 158.05L179.41 158.43L179.69 159.07L185.14 196.66L185.1 197.2L184.84 197.67L184.41 198L183.88 198.11Z" fill="#52B9F9"/>
<path d="M253.26 168.31L251.61 166.13L250.66 165.36L249.61 164.79L248.5 164.44L247.29 164.29L244.62 164.61L244.27 164.84L244.13 165.23V196.98L244.26 197.36L244.63 197.48L253.92 197.5L254 197.78L253.88 198L253.62 198.03L244.76 198.31L244.23 198.22L243.77 197.93L243.46 197.49L243.34 196.96V196.94V164.11L243.46 163.8L243.75 163.64L245.9 163.5L247.8 163.67L249.46 164.17L250.87 165L252.25 166.42L253.26 168.31Z" fill="#9A9DA5" fill-opacity="0.996"/>
<path d="M199.191 165.639L199.311 165.659V165.669L199.341 165.829L199.301 165.929L199.121 166.119L199.051 165.879L199.191 165.639Z" fill="#9A9DA5" fill-opacity="0.996"/>
<path d="M189.291 169.43L190.041 171.96L190.121 174.86L189.331 172.14L189.281 169.51L189.291 169.43Z" fill="#9A9DA5" fill-opacity="0.996"/>
<path d="M165.911 169.869L166.191 170.209L166.231 170.679L166.121 171.309L164.671 180.299L163.431 189.319L163.301 190.109L162.791 191.899L165.391 170.449L165.501 170.139L165.911 169.869Z" fill="#9A9DA5" fill-opacity="0.996"/>
<path d="M111.352 240.078L111.522 239.838L111.862 239.068L112.002 238.158L112.112 236.738L112.402 175.148L112.712 239.168L112.472 239.928L111.852 240.408L111.382 240.428L111.352 240.078Z" fill="#9A9DA5" fill-opacity="0.996"/>
<path d="M190.951 179.699L191.001 179.889L191.931 183.539L192.601 187.259L193.031 191.059L193.221 194.919L190.951 179.699Z" fill="#9A9DA5" fill-opacity="0.996"/>
<path d="M162.791 191.898L162.431 196.958L162.301 197.558L162.011 197.978L161.561 198.218L160.961 198.278L148.641 198.058L144.961 198.408L143.071 198.878L141.211 199.548L137.611 201.488L139.501 199.768L141.461 198.758L145.111 197.858L148.921 197.468L155.081 197.368L161.131 197.488H161.201L161.941 197.138L162.201 196.358L162.181 196.148L162.251 194.038L162.791 191.898Z" fill="#9A9DA5" fill-opacity="0.996"/>
<path d="M235.391 197.43L235.381 197.06L235.561 197L235.591 197.04L235.611 197.4L235.511 197.49L235.501 197.5L235.391 197.43Z" fill="#9A9DA5" fill-opacity="0.996"/>
<path d="M407.15 202.67L407.17 202.66L407.26 201.91L407.16 202.67H407.15Z" fill="#16335D"/>
<path d="M134.031 205.77L133.361 208.22L132.931 210.7L132.731 214.35L133.041 218.07L133.811 223.14L137.961 260.19L137.951 260.94L137.691 261.4L137.501 261.51L137.161 256.78L136.611 252.109L135.351 242.76L132.361 214.95L132.271 211.5L132.911 208.3L134.031 205.77Z" fill="#9A9DA5" fill-opacity="0.996"/>
<path d="M145.002 206.949L143.112 208.469L141.852 210.299L141.222 212.589L141.312 215.219L141.912 219.679L142.282 224.189L141.432 220.129L141.242 218.389L140.852 212.529L141.172 210.519L142.002 208.909L143.272 207.749L145.002 206.949Z" fill="#9A9DA5" fill-opacity="0.996"/>
<path d="M309.741 210.259L306.201 207.059L308.061 208.069L309.001 209.039L309.741 210.259Z" fill="#9A9DA5" fill-opacity="0.996"/>
<path d="M297.291 303.19L298.771 302.2L299.071 301.86L299.161 301.4L299.411 296.97L309.251 220.21L310.051 213.68L310.101 212.22L309.911 210.66L310.021 210.79L310.521 211.95L310.561 213.45L307.491 238.61L305.081 257.33L299.361 302.54L299.191 302.98L298.811 303.23L298.141 303.33L297.291 303.19Z" fill="#9A9DA5" fill-opacity="0.996"/>
<path d="M210.57 254.25L210.97 257.89L211.83 261.1L213.14 263.87L214.92 266.2L217.41 268.26L220.45 269.79L223.07 270.54L225.66 270.78L227.82 270.62L229.93 270.14L232.1 269.3L234.21 268.14L236.19 266.58L237.69 264.8L238.88 262.71L239.65 260.8L240.18 258.96L240.46 257.17L240.5 255.44L240.28 253.29L239.83 251.29L239.14 249.44L238.21 247.74L237.02 246.16L235.59 244.74L233.91 243.48L231.98 242.37L229.28 241.3L226.54 240.78L224.39 240.76L222.2 241.06L219.99 241.69L217.75 242.65L219.61 241.65L221.59 240.93L223.65 240.48L225.75 240.33L229.17 240.73L232.42 241.89L233.97 242.77L235.41 243.83L236.72 245.06L237.89 246.43L238.88 247.93L239.7 249.53L240.34 251.22L240.77 252.98L241.04 256.29L240.61 259.59L239.5 262.71L237.76 265.53L235.36 268.01L232.47 269.88L229.25 271.05L225.85 271.46L223.98 271.35L222.14 271.01L220.35 270.44L218.64 269.66L216.83 268.52L215.2 267.13L213.77 265.53L212.57 263.74L211.63 261.8L210.96 259.74L210.58 257.61L210.49 255.45L210.57 254.25Z" fill="#9A9DA5" fill-opacity="0.996"/>
<path d="M210.57 254.25L211.06 251.66L211.97 249.2L212.58 248.68L212.95 248.08L213.09 247.2L215.18 244.67L217.75 242.65L219.99 241.69L222.2 241.06L224.39 240.76L226.54 240.78L229.28 241.3L231.98 242.37L233.91 243.48L235.59 244.74L237.02 246.16L238.21 247.74L239.14 249.44L239.83 251.29L240.28 253.29L240.5 255.44L240.46 257.17L240.18 258.96L239.65 260.8L238.88 262.71L237.69 264.8L236.19 266.58L234.21 268.14L232.1 269.3L229.93 270.14L227.82 270.62L225.66 270.78L223.07 270.54L220.45 269.79L217.41 268.26L214.92 266.2L213.14 263.87L211.83 261.1L210.97 257.89L210.57 254.25ZM227.356 262.895L228.649 262.446L229.828 261.738L230.847 260.798L231.667 259.663L232.257 258.376L232.594 256.987L232.664 255.548L232.466 254.116L232.007 252.745L231.304 251.488L230.384 250.393L229.284 249.502L228.044 248.85L226.714 248.462L225.343 248.352L223.985 248.525L222.692 248.974L221.513 249.682L220.494 250.621L219.674 251.756L219.084 253.043L218.747 254.433L218.677 255.871L218.875 257.304L219.334 258.675L220.037 259.932L220.956 261.027L222.057 261.917L223.296 262.569L224.627 262.958L225.997 263.068L227.356 262.895Z" fill="#16335D"/>
<path d="M144.5 243.83L146.27 259.34L145.56 255.62L144.81 249.76L144.5 243.83Z" fill="#9A9DA5" fill-opacity="0.996"/>
<path d="M213.091 247.199L212.951 248.079L212.581 248.679L211.971 249.199L213.091 247.199Z" fill="#9A9DA5" fill-opacity="0.996"/>
<path d="M218.875 257.302C219.806 261.271 223.603 263.774 227.356 262.894C231.109 262.013 233.397 258.083 232.466 254.115C231.536 250.147 227.739 247.643 223.986 248.524C220.233 249.404 217.945 253.334 218.875 257.302Z" fill="#52B9F9"/>
<path d="M127.171 267.97L119.241 260.169L114.161 254.93L112.741 252.85L111.761 250.16L111.531 249.799L111.121 249.66L101.311 249.69L101.061 249.23L101.561 248.91L102.891 248.77L111.701 248.82L112.431 249.14L112.741 249.88L113.041 251.79L113.671 253.169L114.661 254.44L127.171 267.97Z" fill="#9A9DA5" fill-opacity="0.996"/>
<path d="M33.5215 251.898L33.9015 255.158L34.0415 260.778L33.5215 266.458V251.898Z" fill="#9A9DA5" fill-opacity="0.996"/>
<path d="M101.5 252.34L102.5 256.52L101.87 255.27L101.53 253.86L101.5 252.34Z" fill="#9A9DA5" fill-opacity="0.996"/>
<path d="M406.72 255.09L407.09 261.2L407.26 268.15L406.97 284.58L406.72 287.1L406.17 289.17L405.32 290.78L404.18 291.95L405.48 290.21L405.97 289L406.16 287.18L406.44 282.93L406.29 269.04L406.72 255.09Z" fill="#9A9DA5" fill-opacity="0.996"/>
<path d="M110.69 265.699L107.55 263.089L105.62 261.009L103.9 258.709L110.69 265.699Z" fill="#9A9DA5" fill-opacity="0.996"/>
<path d="M349.961 264.17L335.121 263.32L348.951 262.93L349.781 263.17L350.031 263.54L349.961 264.17Z" fill="#9A9DA5" fill-opacity="0.996"/>
<path d="M137.771 266.358L138.141 265.648L138.721 266.048L138.691 266.908L138.631 267.008L138.341 267.118L138.081 266.948L137.771 266.358Z" fill="#9A9DA5" fill-opacity="0.996"/>
<path d="M334.48 283.77L348.26 283.32L348.83 283.06L349.04 282.48V282.47L348.91 279.48L349.08 272.96L349.86 266.43L350.06 283.06V283.07L349.76 283.79L349.03 284.08L334.48 283.77Z" fill="#9A9DA5" fill-opacity="0.996"/>
<path d="M121.561 276.229L129.261 282.779L129.671 283.039L130.131 283.178L133.461 283.529L136.761 283.518L140.041 283.159L140.061 283.349L139.711 283.868L139.621 283.928L139.021 284.068L129.861 283.798L129.361 283.688L128.991 283.428L121.561 276.229Z" fill="#9A9DA5" fill-opacity="0.996"/>
<path d="M140.091 281.899L138.711 280.259L138.131 279.109L138.961 279.679L139.571 280.399L140.091 281.899Z" fill="#9A9DA5" fill-opacity="0.996"/>
<path d="M400.871 292.639L398.671 293.339L395.891 293.579L327.321 293.629H315.891L313.321 293.449L310.881 292.899L400.871 292.639Z" fill="#9A9DA5" fill-opacity="0.996"/>
<path d="M309.92 292.899L309.25 294.259L308.8 295.759L308.71 295.529L308.58 294.549L308.8 293.449L309.31 292.799L309.92 292.899Z" fill="#9A9DA5" fill-opacity="0.996"/>
<path d="M308.08 300.469L308.17 302.919L307.91 302.979L307.75 302.689V301.479L308.08 300.469Z" fill="#9A9DA5" fill-opacity="0.996"/>
<path d="M33.501 301.398L34.381 303.238L33.841 303.218L33.491 303.018L33.291 302.408L33.501 301.398Z" fill="#9A9DA5" fill-opacity="0.996"/>
<path d="M25.0103 302.548L24.9303 303.288L24.3903 303.498L17.4403 303.518L8.82031 303.078L13.3803 302.558L19.1803 302.318L25.0103 302.548Z" fill="#9A9DA5" fill-opacity="0.996"/>
<path d="M1.43982 303.85L0.969818 306.9L0.91983 309.93L1.24982 312.85L1.97983 315.75L3.08984 318.64L4.58984 321.5L7.29984 326.26L4.92984 322.94L3.02985 319.52L1.58984 316.01L0.639832 312.41L0.259827 309.95L0.0898438 307.45L0.16983 306.33L0.479828 305.3L1.43982 303.85Z" fill="#9A9DA5" fill-opacity="0.996"/>
<path d="M260.111 303.52L256.651 308.73L255.611 309.76L253.841 310.64L251.641 310.94L217.041 311.01L198.131 310.859L197.971 310.85L197.131 310.66L196.321 310.23L194.741 308.609L190.941 303.669L191.511 303.58L191.961 303.7L192.301 304.04L195.321 308.7L196.041 309.419L197.141 309.97L198.491 310.18L224.501 310.49L252.391 310.22L252.841 310.19L254.601 309.7L255.401 309.14L256.121 308.18L258.001 305.54L260.111 303.52Z" fill="#9A9DA5" fill-opacity="0.996"/>
<path d="M451.15 308.41L451.09 309.76L450.44 314.11L449.1 318.44L447.11 322.55L444.55 326.33L441.39 329.81L437.77 332.83L433.76 335.34L429.43 337.26L426.84 338.03L423.83 338.63L420.42 339.03L416.6 339.26L407.15 339.46L397.68 339.42L406.36 339.4L415.02 339.13L419.17 338.84L422.88 338.35L426.16 337.67L428.99 336.81L432.51 335.32L435.75 333.53L438.69 331.46L441.33 329.09L443.15 327.09L444.8 324.93L446.28 322.6L447.59 320.1L448.74 317.43L449.71 314.59L450.51 311.58L451.15 308.41Z" fill="#9A9DA5" fill-opacity="0.996"/>
<path d="M186.211 312.849L184.141 312.498L138.981 312.548L52.7309 312.529L12.3909 312.508L10.7009 312.678L10.0109 312.839L9.91086 312.648L9.88086 312.508L9.95087 312.178L10.2609 312.018L14.7009 311.729L94.8909 311.858L181.561 311.768L185.931 311.948L186.261 312.138L186.211 312.849Z" fill="#9A9DA5" fill-opacity="0.996"/>
<path d="M10.7598 314.94L12.5798 318.44L14.6898 321.49L17.1098 324.09L19.8398 326.24L23.0298 328.02L26.5698 329.29L30.4398 330.06L34.6398 330.33L105.51 330.45L189.31 330.32L197.39 330.43L207.64 330.55L401.64 330.3L413.31 330.29L420.24 330.01L422.86 329.66L424.92 329.19L425.79 328.91L428.48 327.82L431.06 326.41L433.54 324.71L435.92 322.69L437.53 320.96L438.7 319.35L439.69 317.59L440.51 315.69L441.15 313.64L441.17 313.54L440.96 312.83L440.29 312.52L420.52 312.42L400.77 312.6L282.64 312.57L266.63 312.63L265.83 312.77L264.99 313.16L263.22 314.72L264.14 313.23L265.33 312.26L266.31 311.9L267.41 311.79L309.14 311.81L415.42 311.94L428.36 311.79L441.29 311.6L441.68 311.67L442.28 312.2V312.81L441.33 315.65L439.56 318.89L437.41 321.73L435.05 324.19L432.49 326.28L429.74 327.98L426.83 329.28L423.72 330.21L420.42 330.78L416.92 330.97L335.95 331.14L260.91 331.07L119.39 331.3L39.8398 331.09L35.1898 330.96L31.2798 330.65L28.0898 330.16L25.6298 329.49L22.7098 328.22L20.2298 326.77L17.9098 325.03L15.7198 323.01L13.6898 320.7L11.7598 317.77L11.1398 316.34L10.7598 314.94Z" fill="#9A9DA5" fill-opacity="0.996"/>
<path d="M261.691 316.229L259.941 317.928L257.961 318.979L255.741 319.368L253.291 319.089L255.411 318.898L257.441 318.418L259.631 317.518L261.691 316.229Z" fill="#9A9DA5" fill-opacity="0.996"/>
<path d="M199.33 319.398L193.49 319.078L192.15 318.578L190.73 317.479L195.13 318.858L199.33 319.398Z" fill="#9A9DA5" fill-opacity="0.996"/>
<path d="M10.4399 329.479L9.81992 329.099L9.16992 328.459L8.66992 327.629L9.60992 328.139L10.0999 328.719L10.4399 329.479Z" fill="#9A9DA5" fill-opacity="0.996"/>
<path d="M56.351 339.42L35.501 339.49H32.891L29.111 339.25L25.441 338.55L22.331 337.55L19.311 336.2L16.381 334.48L13.541 332.41L20.801 336.32L23.211 337.35L26.111 338.13L29.501 338.64L33.391 338.89L56.351 339.42Z" fill="#9A9DA5" fill-opacity="0.996"/>
</svg>
